<svg xmlns:svg="http://www.w3.org/2000/svg" xmlns="http://www.w3.org/2000/svg" version="1" width="256" height="256" viewBox="0 0 256 256" preserveAspectRatio="xMidYMid meet"><style>.s0{fill:#ac9d93;}</style><metadata>
Created by potrace 1.11, written by Peter Selinger 2001-2013
</metadata><g transform="matrix(0.07827275,-0.02020944,-0.02114908,-0.07389946,57.954383,252.13317)" fill="#ac9d93"><path d="m10.5 1494.5 0-1055 225 0 225 0 0-225 0-225c624.2-3.6 617.4-2.8 1660 0l0 225 0 225 225 0 225 0 0 1055 0 1055-1280 0-1280 0zm2330 675 0-150-1050 0-1050 0 0 150 0 150 1050 0 1050 0zm0-900 0-600-1050 0-1050 0 0 600 0 600 1050 0 1050 0zm-1350-900 0-150-150 0-150 0 0 150 0 150 150 0 150 0zm450 0 0-150-150 0-150 0 0 150 0 150 150 0 150 0zm450 0 0-150-150 0-150 0 0 150 0 150 150 0 150 0zM530 1355l0-375 300 0 300 0 0 375 0 375-300 0-300 0 0-375zm450 150 0-75-150 0-150 0 0 75 0 75 150 0 150 0 0-75zm450-150 0-375 300 0 300 0 0 375 0 375-300 0-300 0 0-375zm450 150 0-75-150 0-150 0 0 75 0 75 150 0 150 0 0-75z" fill="#ac9d93"/></g></svg>